<mxfile host="app.diagrams.net" agent="Mozilla/5.0 (Windows NT 10.0; Win64; x64) AppleWebKit/537.36 (KHTML, like Gecko) Chrome/133.0.0.0 Safari/537.36" version="26.0.16">
  <diagram id="C5RBs43oDa-KdzZeNtuy" name="Page-1">
    <mxGraphModel dx="1420" dy="827" grid="0" gridSize="10" guides="1" tooltips="1" connect="1" arrows="1" fold="1" page="1" pageScale="1" pageWidth="1169" pageHeight="827" math="0" shadow="0">
      <root>
        <mxCell id="WIyWlLk6GJQsqaUBKTNV-0" />
        <mxCell id="WIyWlLk6GJQsqaUBKTNV-1" parent="WIyWlLk6GJQsqaUBKTNV-0" />
        <mxCell id="WIyWlLk6GJQsqaUBKTNV-2" value="" style="rounded=1;html=1;jettySize=auto;orthogonalLoop=1;fontSize=11;endArrow=block;endFill=0;endSize=8;strokeWidth=1;shadow=0;labelBackgroundColor=none;edgeStyle=orthogonalEdgeStyle;strokeColor=#736CA8;fontColor=default;" parent="WIyWlLk6GJQsqaUBKTNV-1" source="WIyWlLk6GJQsqaUBKTNV-3" target="WIyWlLk6GJQsqaUBKTNV-6" edge="1">
          <mxGeometry relative="1" as="geometry" />
        </mxCell>
        <mxCell id="WIyWlLk6GJQsqaUBKTNV-3" value="El Usuario rellena el formulario" style="rounded=1;whiteSpace=wrap;html=1;fontSize=12;glass=0;strokeWidth=1;shadow=0;labelBackgroundColor=none;fillColor=#5D7F99;strokeColor=#D0CEE2;fontColor=#1A1A1A;" parent="WIyWlLk6GJQsqaUBKTNV-1" vertex="1">
          <mxGeometry x="115" y="284" width="120" height="40" as="geometry" />
        </mxCell>
        <mxCell id="WIyWlLk6GJQsqaUBKTNV-4" value="Sí" style="rounded=1;html=1;jettySize=auto;orthogonalLoop=1;fontSize=11;endArrow=block;endFill=0;endSize=8;strokeWidth=1;shadow=0;labelBackgroundColor=none;edgeStyle=orthogonalEdgeStyle;strokeColor=#736CA8;fontColor=default;" parent="WIyWlLk6GJQsqaUBKTNV-1" source="WIyWlLk6GJQsqaUBKTNV-6" target="WIyWlLk6GJQsqaUBKTNV-10" edge="1">
          <mxGeometry x="-0.7143" y="10" relative="1" as="geometry">
            <mxPoint as="offset" />
          </mxGeometry>
        </mxCell>
        <mxCell id="WIyWlLk6GJQsqaUBKTNV-5" value="No" style="edgeStyle=orthogonalEdgeStyle;rounded=1;html=1;jettySize=auto;orthogonalLoop=1;fontSize=11;endArrow=block;endFill=0;endSize=8;strokeWidth=1;shadow=0;labelBackgroundColor=none;strokeColor=#736CA8;fontColor=default;entryX=0.5;entryY=1;entryDx=0;entryDy=0;" parent="WIyWlLk6GJQsqaUBKTNV-1" source="WIyWlLk6GJQsqaUBKTNV-6" target="WIyWlLk6GJQsqaUBKTNV-3" edge="1">
          <mxGeometry x="-0.7142" y="-10" relative="1" as="geometry">
            <mxPoint as="offset" />
          </mxGeometry>
        </mxCell>
        <mxCell id="WIyWlLk6GJQsqaUBKTNV-6" value="¿Elementos&lt;div&gt;válidos?&lt;/div&gt;" style="rhombus;whiteSpace=wrap;html=1;shadow=0;fontFamily=Helvetica;fontSize=12;align=center;strokeWidth=1;spacing=6;spacingTop=-4;labelBackgroundColor=none;fillColor=#5D7F99;strokeColor=#D0CEE2;fontColor=#1A1A1A;rounded=1;" parent="WIyWlLk6GJQsqaUBKTNV-1" vertex="1">
          <mxGeometry x="255" y="344" width="100" height="80" as="geometry" />
        </mxCell>
        <mxCell id="WIyWlLk6GJQsqaUBKTNV-9" value="No" style="edgeStyle=orthogonalEdgeStyle;rounded=1;html=1;jettySize=auto;orthogonalLoop=1;fontSize=11;endArrow=block;endFill=0;endSize=8;strokeWidth=1;shadow=0;labelBackgroundColor=none;strokeColor=#736CA8;fontColor=default;" parent="WIyWlLk6GJQsqaUBKTNV-1" source="WIyWlLk6GJQsqaUBKTNV-10" edge="1">
          <mxGeometry x="-0.9582" y="-10" relative="1" as="geometry">
            <mxPoint as="offset" />
            <mxPoint x="175" y="324" as="targetPoint" />
            <Array as="points">
              <mxPoint x="475" y="464" />
              <mxPoint x="175" y="464" />
            </Array>
          </mxGeometry>
        </mxCell>
        <mxCell id="WIyWlLk6GJQsqaUBKTNV-10" value="&lt;font style=&quot;color: rgb(0, 0, 0);&quot;&gt;¿&lt;span style=&quot;background-color: transparent;&quot;&gt;Usuario ya registrado?&lt;/span&gt;&lt;/font&gt;" style="rhombus;whiteSpace=wrap;html=1;shadow=0;fontFamily=Helvetica;fontSize=12;align=center;strokeWidth=1;spacing=6;spacingTop=-4;labelBackgroundColor=none;fillColor=#5D7F99;strokeColor=#D0CEE2;fontColor=#1A1A1A;rounded=1;" parent="WIyWlLk6GJQsqaUBKTNV-1" vertex="1">
          <mxGeometry x="425" y="344" width="100" height="80" as="geometry" />
        </mxCell>
        <mxCell id="6u8F5dvvLnZfu8jKy_S6-0" value="Base de datos" style="shape=datastore;whiteSpace=wrap;html=1;strokeColor=#D0CEE2;fontColor=#1A1A1A;fillColor=#5D7F99;labelBackgroundColor=none;" parent="WIyWlLk6GJQsqaUBKTNV-1" vertex="1">
          <mxGeometry x="345" y="244" width="60" height="60" as="geometry" />
        </mxCell>
        <mxCell id="6u8F5dvvLnZfu8jKy_S6-2" value="" style="endArrow=block;startArrow=block;html=1;rounded=1;strokeColor=#736CA8;fontColor=default;endFill=0;startFill=0;endSize=8;startSize=8;entryX=0.5;entryY=1;entryDx=0;entryDy=0;exitX=0.5;exitY=0;exitDx=0;exitDy=0;edgeStyle=orthogonalEdgeStyle;curved=0;labelBackgroundColor=none;" parent="WIyWlLk6GJQsqaUBKTNV-1" source="WIyWlLk6GJQsqaUBKTNV-10" target="6u8F5dvvLnZfu8jKy_S6-0" edge="1">
          <mxGeometry width="50" height="50" relative="1" as="geometry">
            <mxPoint x="415" y="474" as="sourcePoint" />
            <mxPoint x="465" y="424" as="targetPoint" />
          </mxGeometry>
        </mxCell>
        <mxCell id="6u8F5dvvLnZfu8jKy_S6-9" value="" style="rounded=1;html=1;jettySize=auto;orthogonalLoop=1;fontSize=11;endArrow=block;endFill=0;endSize=8;strokeWidth=1;shadow=0;labelBackgroundColor=none;edgeStyle=orthogonalEdgeStyle;strokeColor=#736CA8;fontColor=default;" parent="WIyWlLk6GJQsqaUBKTNV-1" source="6u8F5dvvLnZfu8jKy_S6-10" target="6u8F5dvvLnZfu8jKy_S6-13" edge="1">
          <mxGeometry relative="1" as="geometry" />
        </mxCell>
        <mxCell id="6u8F5dvvLnZfu8jKy_S6-10" value="El Usuario rellena el formulario" style="rounded=1;whiteSpace=wrap;html=1;fontSize=12;glass=0;strokeWidth=1;shadow=0;labelBackgroundColor=none;fillColor=#5D7F99;strokeColor=#D0CEE2;fontColor=#1A1A1A;" parent="WIyWlLk6GJQsqaUBKTNV-1" vertex="1">
          <mxGeometry x="625" y="284" width="120" height="40" as="geometry" />
        </mxCell>
        <mxCell id="6u8F5dvvLnZfu8jKy_S6-11" value="Sí" style="rounded=1;html=1;jettySize=auto;orthogonalLoop=1;fontSize=11;endArrow=block;endFill=0;endSize=8;strokeWidth=1;shadow=0;labelBackgroundColor=none;edgeStyle=orthogonalEdgeStyle;strokeColor=#736CA8;fontColor=default;" parent="WIyWlLk6GJQsqaUBKTNV-1" source="6u8F5dvvLnZfu8jKy_S6-13" target="6u8F5dvvLnZfu8jKy_S6-15" edge="1">
          <mxGeometry x="-0.7143" y="10" relative="1" as="geometry">
            <mxPoint as="offset" />
          </mxGeometry>
        </mxCell>
        <mxCell id="6u8F5dvvLnZfu8jKy_S6-12" value="No" style="rounded=1;html=1;jettySize=auto;orthogonalLoop=1;fontSize=11;endArrow=block;endFill=0;endSize=8;strokeWidth=1;shadow=0;labelBackgroundColor=none;strokeColor=#736CA8;fontColor=default;entryX=0.5;entryY=1;entryDx=0;entryDy=0;exitX=0.5;exitY=1;exitDx=0;exitDy=0;edgeStyle=orthogonalEdgeStyle;" parent="WIyWlLk6GJQsqaUBKTNV-1" source="6u8F5dvvLnZfu8jKy_S6-13" target="WIyWlLk6GJQsqaUBKTNV-3" edge="1">
          <mxGeometry x="-0.9775" y="-10" relative="1" as="geometry">
            <mxPoint as="offset" />
            <mxPoint x="145" y="384" as="targetPoint" />
            <Array as="points">
              <mxPoint x="815" y="504" />
              <mxPoint x="175" y="504" />
            </Array>
          </mxGeometry>
        </mxCell>
        <mxCell id="6u8F5dvvLnZfu8jKy_S6-13" value="¿Elementos&lt;div&gt;válidos?&lt;/div&gt;" style="rhombus;whiteSpace=wrap;html=1;shadow=0;fontFamily=Helvetica;fontSize=12;align=center;strokeWidth=1;spacing=6;spacingTop=-4;labelBackgroundColor=none;fillColor=#5D7F99;strokeColor=#D0CEE2;fontColor=#1A1A1A;rounded=1;" parent="WIyWlLk6GJQsqaUBKTNV-1" vertex="1">
          <mxGeometry x="765" y="344" width="100" height="80" as="geometry" />
        </mxCell>
        <mxCell id="6u8F5dvvLnZfu8jKy_S6-14" value="Sí" style="rounded=1;html=1;jettySize=auto;orthogonalLoop=1;fontSize=11;endArrow=block;endFill=0;endSize=8;strokeWidth=1;shadow=0;labelBackgroundColor=none;strokeColor=#736CA8;fontColor=default;entryX=0.5;entryY=1;entryDx=0;entryDy=0;exitX=0.5;exitY=1;exitDx=0;exitDy=0;edgeStyle=orthogonalEdgeStyle;" parent="WIyWlLk6GJQsqaUBKTNV-1" source="6u8F5dvvLnZfu8jKy_S6-15" target="WIyWlLk6GJQsqaUBKTNV-3" edge="1">
          <mxGeometry x="-0.9582" y="-10" relative="1" as="geometry">
            <mxPoint as="offset" />
            <mxPoint x="735" y="324" as="targetPoint" />
            <Array as="points">
              <mxPoint x="985" y="504" />
              <mxPoint x="175" y="504" />
            </Array>
          </mxGeometry>
        </mxCell>
        <mxCell id="6u8F5dvvLnZfu8jKy_S6-15" value="¿Caducó la petición?" style="rhombus;whiteSpace=wrap;html=1;shadow=0;fontFamily=Helvetica;fontSize=12;align=center;strokeWidth=1;spacing=6;spacingTop=-4;labelBackgroundColor=none;fillColor=#5D7F99;strokeColor=#D0CEE2;fontColor=#1A1A1A;rounded=1;" parent="WIyWlLk6GJQsqaUBKTNV-1" vertex="1">
          <mxGeometry x="935" y="344" width="100" height="80" as="geometry" />
        </mxCell>
        <mxCell id="6u8F5dvvLnZfu8jKy_S6-16" value="Base de datos" style="shape=datastore;whiteSpace=wrap;html=1;strokeColor=#D0CEE2;fontColor=#1A1A1A;fillColor=#5D7F99;labelBackgroundColor=none;" parent="WIyWlLk6GJQsqaUBKTNV-1" vertex="1">
          <mxGeometry x="855" y="244" width="60" height="60" as="geometry" />
        </mxCell>
        <mxCell id="6u8F5dvvLnZfu8jKy_S6-17" value="" style="endArrow=block;startArrow=block;html=1;rounded=1;strokeColor=#736CA8;fontColor=default;endFill=0;startFill=0;endSize=8;startSize=8;entryX=0.5;entryY=1;entryDx=0;entryDy=0;exitX=0.5;exitY=0;exitDx=0;exitDy=0;edgeStyle=orthogonalEdgeStyle;curved=0;labelBackgroundColor=none;" parent="WIyWlLk6GJQsqaUBKTNV-1" source="6u8F5dvvLnZfu8jKy_S6-15" target="6u8F5dvvLnZfu8jKy_S6-16" edge="1">
          <mxGeometry width="50" height="50" relative="1" as="geometry">
            <mxPoint x="925" y="474" as="sourcePoint" />
            <mxPoint x="975" y="424" as="targetPoint" />
          </mxGeometry>
        </mxCell>
        <mxCell id="6u8F5dvvLnZfu8jKy_S6-18" value="Correo Electrónico" style="ellipse;shape=cloud;whiteSpace=wrap;html=1;align=center;strokeColor=#D0CEE2;fontColor=#1A1A1A;fillColor=#5D7F99;labelBackgroundColor=none;" parent="WIyWlLk6GJQsqaUBKTNV-1" vertex="1">
          <mxGeometry x="545" y="214" width="100" height="60" as="geometry" />
        </mxCell>
        <mxCell id="6u8F5dvvLnZfu8jKy_S6-19" value="Sí" style="rounded=1;html=1;jettySize=auto;orthogonalLoop=1;fontSize=11;endArrow=block;endFill=0;endSize=8;strokeWidth=1;shadow=0;labelBackgroundColor=none;edgeStyle=orthogonalEdgeStyle;strokeColor=#736CA8;fontColor=default;exitX=1;exitY=0.5;exitDx=0;exitDy=0;entryX=0.367;entryY=0.893;entryDx=0;entryDy=0;entryPerimeter=0;" parent="WIyWlLk6GJQsqaUBKTNV-1" source="WIyWlLk6GJQsqaUBKTNV-10" target="6u8F5dvvLnZfu8jKy_S6-18" edge="1">
          <mxGeometry x="-0.7143" y="10" relative="1" as="geometry">
            <mxPoint as="offset" />
            <mxPoint x="365" y="394" as="sourcePoint" />
            <mxPoint x="585" y="294" as="targetPoint" />
          </mxGeometry>
        </mxCell>
        <mxCell id="6u8F5dvvLnZfu8jKy_S6-20" value="" style="rounded=1;html=1;jettySize=auto;orthogonalLoop=1;fontSize=11;endArrow=block;endFill=0;endSize=8;strokeWidth=1;shadow=0;labelBackgroundColor=none;strokeColor=#736CA8;fontColor=default;exitX=0.596;exitY=0.95;exitDx=0;exitDy=0;exitPerimeter=0;edgeStyle=orthogonalEdgeStyle;entryX=0.5;entryY=1;entryDx=0;entryDy=0;" parent="WIyWlLk6GJQsqaUBKTNV-1" source="6u8F5dvvLnZfu8jKy_S6-18" target="6u8F5dvvLnZfu8jKy_S6-10" edge="1">
          <mxGeometry x="-0.7143" y="10" relative="1" as="geometry">
            <mxPoint as="offset" />
            <mxPoint x="605" y="294" as="sourcePoint" />
            <mxPoint x="675" y="454" as="targetPoint" />
            <Array as="points">
              <mxPoint x="605" y="384" />
              <mxPoint x="685" y="384" />
            </Array>
          </mxGeometry>
        </mxCell>
        <mxCell id="6u8F5dvvLnZfu8jKy_S6-21" value="" style="rounded=1;html=1;jettySize=auto;orthogonalLoop=1;fontSize=11;endArrow=block;endFill=0;endSize=8;strokeWidth=1;shadow=0;labelBackgroundColor=none;edgeStyle=orthogonalEdgeStyle;strokeColor=#736CA8;fontColor=default;" parent="WIyWlLk6GJQsqaUBKTNV-1" source="6u8F5dvvLnZfu8jKy_S6-22" target="6u8F5dvvLnZfu8jKy_S6-24" edge="1">
          <mxGeometry relative="1" as="geometry" />
        </mxCell>
        <mxCell id="6u8F5dvvLnZfu8jKy_S6-22" value="El Usuario rellena el formulario" style="rounded=1;whiteSpace=wrap;html=1;fontSize=12;glass=0;strokeWidth=1;shadow=0;labelBackgroundColor=none;fillColor=#5D7F99;strokeColor=#D0CEE2;fontColor=#1A1A1A;" parent="WIyWlLk6GJQsqaUBKTNV-1" vertex="1">
          <mxGeometry x="905" y="534" width="120" height="40" as="geometry" />
        </mxCell>
        <mxCell id="6u8F5dvvLnZfu8jKy_S6-23" value="Sí" style="rounded=1;html=1;jettySize=auto;orthogonalLoop=1;fontSize=11;endArrow=block;endFill=0;endSize=8;strokeWidth=1;shadow=0;labelBackgroundColor=none;edgeStyle=orthogonalEdgeStyle;strokeColor=#736CA8;fontColor=default;entryX=1;entryY=0.5;entryDx=0;entryDy=0;" parent="WIyWlLk6GJQsqaUBKTNV-1" source="6u8F5dvvLnZfu8jKy_S6-24" target="6u8F5dvvLnZfu8jKy_S6-31" edge="1">
          <mxGeometry x="-0.7143" y="10" relative="1" as="geometry">
            <mxPoint as="offset" />
            <mxPoint x="625" y="554" as="targetPoint" />
          </mxGeometry>
        </mxCell>
        <mxCell id="6u8F5dvvLnZfu8jKy_S6-24" value="¿Elementos&lt;div&gt;válidos?&lt;/div&gt;" style="rhombus;whiteSpace=wrap;html=1;shadow=0;fontFamily=Helvetica;fontSize=12;align=center;strokeWidth=1;spacing=6;spacingTop=-4;labelBackgroundColor=none;fillColor=#5D7F99;strokeColor=#D0CEE2;fontColor=#1A1A1A;rounded=1;" parent="WIyWlLk6GJQsqaUBKTNV-1" vertex="1">
          <mxGeometry x="745" y="514" width="100" height="80" as="geometry" />
        </mxCell>
        <mxCell id="6u8F5dvvLnZfu8jKy_S6-28" value="No" style="rounded=1;html=1;jettySize=auto;orthogonalLoop=1;fontSize=11;endArrow=block;endFill=0;endSize=8;strokeWidth=1;shadow=0;labelBackgroundColor=none;edgeStyle=orthogonalEdgeStyle;strokeColor=#736CA8;fontColor=default;exitX=1;exitY=0.5;exitDx=0;exitDy=0;entryX=1;entryY=0.5;entryDx=0;entryDy=0;" parent="WIyWlLk6GJQsqaUBKTNV-1" source="6u8F5dvvLnZfu8jKy_S6-15" target="6u8F5dvvLnZfu8jKy_S6-22" edge="1">
          <mxGeometry x="-0.7143" y="10" relative="1" as="geometry">
            <mxPoint as="offset" />
            <mxPoint x="1155" y="474" as="sourcePoint" />
            <mxPoint x="1105" y="544" as="targetPoint" />
          </mxGeometry>
        </mxCell>
        <mxCell id="6u8F5dvvLnZfu8jKy_S6-29" value="No" style="rounded=1;html=1;jettySize=auto;orthogonalLoop=1;fontSize=11;endArrow=block;endFill=0;endSize=8;strokeWidth=1;shadow=0;labelBackgroundColor=none;edgeStyle=orthogonalEdgeStyle;strokeColor=#736CA8;fontColor=default;exitX=0.5;exitY=1;exitDx=0;exitDy=0;entryX=0.5;entryY=1;entryDx=0;entryDy=0;" parent="WIyWlLk6GJQsqaUBKTNV-1" source="6u8F5dvvLnZfu8jKy_S6-24" target="6u8F5dvvLnZfu8jKy_S6-22" edge="1">
          <mxGeometry x="-0.7143" y="10" relative="1" as="geometry">
            <mxPoint as="offset" />
            <mxPoint x="1045" y="394" as="sourcePoint" />
            <mxPoint x="1035" y="564" as="targetPoint" />
          </mxGeometry>
        </mxCell>
        <mxCell id="6u8F5dvvLnZfu8jKy_S6-30" value="Base de datos" style="shape=datastore;whiteSpace=wrap;html=1;strokeColor=#D0CEE2;fontColor=#1A1A1A;fillColor=#5D7F99;labelBackgroundColor=none;" parent="WIyWlLk6GJQsqaUBKTNV-1" vertex="1">
          <mxGeometry x="345" y="524" width="60" height="60" as="geometry" />
        </mxCell>
        <mxCell id="6u8F5dvvLnZfu8jKy_S6-31" value="Se actualizan los datos de usuario" style="rounded=1;whiteSpace=wrap;html=1;fontSize=12;glass=0;strokeWidth=1;shadow=0;labelBackgroundColor=none;fillColor=#5D7F99;strokeColor=#D0CEE2;fontColor=#1A1A1A;" parent="WIyWlLk6GJQsqaUBKTNV-1" vertex="1">
          <mxGeometry x="475" y="534" width="120" height="40" as="geometry" />
        </mxCell>
        <mxCell id="6u8F5dvvLnZfu8jKy_S6-32" value="" style="rounded=1;html=1;jettySize=auto;orthogonalLoop=1;fontSize=11;endArrow=block;endFill=0;endSize=8;strokeWidth=1;shadow=0;labelBackgroundColor=none;edgeStyle=orthogonalEdgeStyle;strokeColor=#736CA8;fontColor=default;entryX=1;entryY=0.5;entryDx=0;entryDy=0;exitX=0;exitY=0.5;exitDx=0;exitDy=0;" parent="WIyWlLk6GJQsqaUBKTNV-1" source="6u8F5dvvLnZfu8jKy_S6-31" target="6u8F5dvvLnZfu8jKy_S6-30" edge="1">
          <mxGeometry x="-0.7143" y="10" relative="1" as="geometry">
            <mxPoint as="offset" />
            <mxPoint x="755" y="564" as="sourcePoint" />
            <mxPoint x="605" y="564" as="targetPoint" />
          </mxGeometry>
        </mxCell>
      </root>
    </mxGraphModel>
  </diagram>
</mxfile>
